<?xml version="1.0" encoding="iso-8859-1"?>
<!-- Generator: Adobe Illustrator 19.0.0, SVG Export Plug-In . SVG Version: 6.00 Build 0)  -->
<svg version="1.1" id="Layer_1" xmlns="http://www.w3.org/2000/svg" xmlns:xlink="http://www.w3.org/1999/xlink" x="0px" y="0px"
	 viewBox="0 0 512 512" style="enable-background:new 0 0 512 512;" xml:space="preserve">
<circle style="fill:#E1EFFA;" cx="256" cy="256" r="256"/>
<path style="fill:#BCD4E8;" d="M508.841,296.184L345.047,132.408l-1.987-1.984c-1.861-1.441-4.142-2.284-6.676-2.284h-160.75
	c-6.047,0-10.952,4.941-10.952,10.944v233.833c0,2.619,0.934,5.071,2.499,6.976c0.463,0.504,0.929,1.011,1.48,1.475l127.475,127.478
	C405.355,491.648,491.615,405.394,508.841,296.184z"/>
<path style="fill:#5D6D7E;" d="M347.323,372.908c0,6.019-4.918,10.954-10.952,10.954H175.634c-6.036,0-10.954-4.938-10.954-10.954
	V139.095c0-6.019,4.918-10.952,10.954-10.952h160.737c6.034,0,10.952,4.933,10.952,10.952V372.908z"/>
<path style="fill:#34495E;" d="M327.754,280.735l-11.502-11.51c11.195-13.522,17.93-30.876,17.93-49.761
	c0-43.092-35.069-78.175-78.182-78.175c-43.108,0-78.182,35.082-78.182,78.175v39.793c4.582,1.006,8.041,5.092,8.041,9.969
	c0,4.902-3.459,8.996-8.041,9.999v68.104c0,6.257,2.437,12.129,6.853,16.54c4.419,4.419,10.286,6.848,16.527,6.848h115.267
	l17.718-17.705v-56.76c0-2.811-0.527-5.647-1.669-8.387C331.382,285.11,329.731,282.729,327.754,280.735z"/>
<path style="fill:#F2F9FF;" d="M329.068,219.471c0,40.356-32.704,73.068-73.068,73.068c-40.356,0-73.062-32.712-73.062-73.068
	c0-40.353,32.707-73.073,73.062-73.073C296.363,146.399,329.068,179.118,329.068,219.471z"/>
<path style="fill:#34495E;" d="M283.389,219.464c0,15.142-12.255,27.405-27.389,27.405c-15.142,0-27.389-12.262-27.389-27.405
	c0-15.122,12.247-27.395,27.389-27.395C271.135,192.069,283.389,204.342,283.389,219.464z"/>
<path style="fill:#FF8E31;" d="M280.468,219.464c0,13.53-10.952,24.481-24.468,24.481c-13.512,0-24.476-10.952-24.476-24.481
	c0-13.517,10.962-24.476,24.476-24.476C269.514,194.988,280.468,205.947,280.468,219.464z"/>
<g>
	<path style="fill:#34495E;" d="M261.476,219.464c0,3.039-2.455,5.478-5.476,5.478c-3.028,0-5.481-2.44-5.481-5.478
		c0-3.016,2.452-5.486,5.481-5.486C259.021,213.978,261.476,216.448,261.476,219.464z"/>
	<path style="fill:#34495E;" d="M258.55,204.485c0,1.413-1.139,2.56-2.55,2.56c-1.418,0-2.557-1.147-2.557-2.56
		c0-1.411,1.137-2.552,2.557-2.552C257.411,201.933,258.55,203.075,258.55,204.485z"/>
	<path style="fill:#34495E;" d="M241.027,216.914c1.413,0,2.55,1.144,2.55,2.55c0,1.418-1.137,2.557-2.55,2.557
		c-1.411,0-2.552-1.137-2.552-2.557C238.474,218.058,239.616,216.914,241.027,216.914z"/>
	<path style="fill:#34495E;" d="M253.443,234.455c0-1.416,1.137-2.557,2.557-2.557c1.411,0,2.55,1.142,2.55,2.557
		c0,1.411-1.139,2.55-2.55,2.55C254.582,237.005,253.443,235.866,253.443,234.455z"/>
	<path style="fill:#34495E;" d="M270.979,222.021c-1.423,0-2.56-1.137-2.56-2.557c0-1.405,1.137-2.55,2.56-2.55
		c1.418,0,2.56,1.144,2.56,2.55C273.539,220.882,272.394,222.021,270.979,222.021z"/>
</g>
<path style="fill:#CEE2F2;" d="M288.276,264.584c0.374-0.492,0.563-1.091,0.53-1.736c-0.041-0.653-0.33-1.229-0.74-1.656
	l-0.422-0.422c-0.428-0.42-1.016-0.714-1.651-0.742c-0.645-0.044-1.257,0.161-1.728,0.525l-62.774,48.63
	c-2.708,2.104-4.554,5.322-4.78,9.029c-0.238,3.694,1.172,7.135,3.617,9.572l0.722,0.73c2.424,2.424,5.865,3.843,9.569,3.61
	c3.697-0.225,6.922-2.071,9.034-4.795L288.276,264.584z"/>
<path style="fill:#34495E;" d="M234.447,322.13c-2.212,2.22-5.814,2.22-8.036,0c-2.227-2.22-2.227-5.821,0-8.036
	c2.22-2.22,5.821-2.22,8.036,0C236.672,316.308,236.672,319.91,234.447,322.13z"/>
<path style="fill:#5D6D7E;" d="M230.436,336.374c-10.092,0-18.281-8.174-18.281-18.268v-25.564h-29.217v54.787
	c0,4.677,1.784,9.362,5.35,12.931c3.553,3.564,8.23,5.345,12.908,5.345H256v-29.23L230.436,336.374L230.436,336.374z"/>
<polygon style="fill:#FF8E31;" points="329.068,336.374 264.947,336.374 264.947,365.601 314.363,365.601 329.068,350.889 "/>
<g>
	<path style="fill:#F2F9FF;" d="M180.741,139.095c0,2.834-2.304,5.117-5.107,5.117c-2.829,0-5.12-2.284-5.12-5.117
		c0-2.826,2.289-5.11,5.12-5.11C178.437,133.985,180.741,136.266,180.741,139.095z"/>
	<path style="fill:#F2F9FF;" d="M341.478,139.095c0,2.834-2.286,5.117-5.107,5.117c-2.826,0-5.11-2.284-5.11-5.117
		c0-2.826,2.286-5.11,5.11-5.11C339.192,133.985,341.478,136.266,341.478,139.095z"/>
	<path style="fill:#F2F9FF;" d="M180.741,269.225c0,2.836-2.304,5.112-5.107,5.112c-2.829,0-5.12-2.276-5.12-5.112
		c0-2.811,2.289-5.107,5.12-5.107C178.437,264.118,180.741,266.414,180.741,269.225z"/>
	<path style="fill:#F2F9FF;" d="M341.478,269.225c0,2.836-2.286,5.112-5.107,5.112c-2.826,0-5.11-2.276-5.11-5.112
		c0-2.811,2.286-5.107,5.11-5.107C339.192,264.118,341.478,266.414,341.478,269.225z"/>
	<path style="fill:#F2F9FF;" d="M180.741,372.908c0,2.824-2.304,5.12-5.107,5.12c-2.829,0-5.12-2.296-5.12-5.12
		c0-2.829,2.289-5.107,5.12-5.107C178.437,367.8,180.741,370.079,180.741,372.908z"/>
	<circle style="fill:#F2F9FF;" cx="336.358" cy="372.915" r="5.11"/>
</g>
<g>
</g>
<g>
</g>
<g>
</g>
<g>
</g>
<g>
</g>
<g>
</g>
<g>
</g>
<g>
</g>
<g>
</g>
<g>
</g>
<g>
</g>
<g>
</g>
<g>
</g>
<g>
</g>
<g>
</g>
</svg>
